<svg xmlns="http://www.w3.org/2000/svg" viewBox="0 0 44 44"><defs><style>.cls-1{fill:#3899e8;}</style></defs><title>资源 12</title><g id="图层_2" data-name="图层 2"><g id="图层_1-2" data-name="图层 1"><path class="cls-1" d="M22,0A22.16,22.16,0,0,0,0,22,22.16,22.16,0,0,0,22,44,22.16,22.16,0,0,0,44,22,22.16,22.16,0,0,0,22,0ZM34.32,13.79c1.17-1.17,2.64-1.47,3.23-.88s.29,2.05-.88,3.23S34,17.6,33.44,17,33.15,15,34.32,13.79ZM22,5.87c.88,0,1.47,1.17,1.47,2.93s-.59,2.93-1.47,2.93-1.47-1.18-1.47-2.93S21.12,5.87,22,5.87Zm-15,7H7c.59-.59,2.05-.29,3.23.88s1.46,2.64.88,3.22-2.05.29-3.23-.88S6.45,13.49,7,12.91Zm29,19.36H7.92a1.47,1.47,0,1,1,0-2.93h6.75V22a7.33,7.33,0,1,1,14.67,0v7.33h6.75a1.47,1.47,0,1,1,0,2.93Z"/></g></g></svg>