<svg xmlns="http://www.w3.org/2000/svg" viewBox="0 0 53.79 47.81"><defs><style>.cls-1{fill:#c6c6c6;}</style></defs><title>资源 7</title><g id="图层_2" data-name="图层 2"><g id="图层_1-2" data-name="图层 1"><path class="cls-1" d="M0,7.45v33c0,3.08.56,3.67,3.3,3.67H40.72c2.72,0,3.3-.56,3.3-3.67v-33c0-3-.52-3.67-3.3-3.67H3.3C.57,3.79,0,4.31,0,7.45ZM38.84,35.57H5.21c3.68-6,10.21-15.88,11.87-15.88s7.07,8,9.53,10.84c0,0,3.17-4.71,4.83-4.71s7.34,9.69,7.4,9.74ZM29,14.79a4.06,4.06,0,1,1,8.12,0,3.89,3.89,0,0,1-4.06,4,3.89,3.89,0,0,1-4.06-4ZM20.65,1.57,14.21.22c-2.14-.45-3-.29-3.51,1.36ZM51,8l-5-1.06c0,.14,0,.27,0,.4V40.5c0,1.54-.09,3.28-1.19,4.48a5.07,5.07,0,0,1-4,1.26h-3L44.2,47.6c2.67.56,3.34.13,3.86-2.92L53.6,12.25c.5-3,.11-3.71-2.63-4.29Zm0,0"/></g></g></svg>