<svg xmlns="http://www.w3.org/2000/svg" viewBox="0 0 63.91 61"><defs><style>.cls-1{fill:#3899e8;}</style></defs><title>资源 3</title><g id="图层_2" data-name="图层 2"><g id="图层_1-2" data-name="图层 1"><path class="cls-1" d="M62.46,55.19H59.55V20.33a5.83,5.83,0,0,0-5.81-5.81H42.12V55.19h-2.9V5.81A5.83,5.83,0,0,0,33.41,0H10.17A5.83,5.83,0,0,0,4.36,5.81V55.19H1.45A1.37,1.37,0,0,0,0,56.65v2.9A1.37,1.37,0,0,0,1.45,61h61a1.37,1.37,0,0,0,1.45-1.45v-2.9a1.37,1.37,0,0,0-1.45-1.45ZM18.88,42.12a1.37,1.37,0,0,1-1.45,1.45H11.62a1.37,1.37,0,0,1-1.45-1.45v-2.9a1.37,1.37,0,0,1,1.45-1.45h5.81a1.37,1.37,0,0,1,1.45,1.45Zm0-11.62A1.37,1.37,0,0,1,17.43,32H11.62a1.37,1.37,0,0,1-1.45-1.45V27.6a1.37,1.37,0,0,1,1.45-1.45h5.81a1.37,1.37,0,0,1,1.45,1.45Zm0-11.62a1.37,1.37,0,0,1-1.45,1.45H11.62a1.37,1.37,0,0,1-1.45-1.45V16a1.37,1.37,0,0,1,1.45-1.45h5.81A1.37,1.37,0,0,1,18.88,16ZM33.41,42.12A1.37,1.37,0,0,1,32,43.57H26.14a1.37,1.37,0,0,1-1.45-1.45v-2.9a1.37,1.37,0,0,1,1.45-1.45H32a1.37,1.37,0,0,1,1.45,1.45Zm0-11.62A1.37,1.37,0,0,1,32,32H26.14a1.37,1.37,0,0,1-1.45-1.45V27.6a1.37,1.37,0,0,1,1.45-1.45H32a1.37,1.37,0,0,1,1.45,1.45Zm0-11.62A1.37,1.37,0,0,1,32,20.33H26.14a1.37,1.37,0,0,1-1.45-1.45V16a1.37,1.37,0,0,1,1.45-1.45H32A1.37,1.37,0,0,1,33.41,16ZM55.19,42.12a1.37,1.37,0,0,1-1.45,1.45H47.93a1.37,1.37,0,0,1-1.45-1.45v-2.9a1.37,1.37,0,0,1,1.45-1.45h5.81a1.37,1.37,0,0,1,1.45,1.45Zm0-11.62A1.37,1.37,0,0,1,53.74,32H47.93a1.37,1.37,0,0,1-1.45-1.45V27.6a1.37,1.37,0,0,1,1.45-1.45h5.81a1.37,1.37,0,0,1,1.45,1.45Zm0,0"/></g></g></svg>