<svg xmlns="http://www.w3.org/2000/svg" xmlns:xlink="http://www.w3.org/1999/xlink" viewBox="0 0 321 331"><defs><style>.cls-1{fill:none;}.cls-2,.cls-5{fill:#3899e8;}.cls-2{opacity:0.1;}.cls-3{clip-path:url(#clip-path);}.cls-4{font-size:36px;fill:#424242;font-family:MicrosoftYaHei, Microsoft YaHei;}.cls-5{font-size:48px;font-family:MicrosoftYaHei-Bold, Microsoft YaHei;font-weight:700;}</style><clipPath id="clip-path"><rect class="cls-1" width="318" height="312" rx="20.97" ry="20.97"/></clipPath></defs><title>资源 17</title><g id="图层_2" data-name="图层 2"><g id="图层_1-2" data-name="图层 1"><rect class="cls-2" width="318" height="312" rx="20.97" ry="20.97"/><g class="cls-3"><path class="cls-2" d="M308.72,264.74a12.21,12.21,0,0,0-12.26,12.16v5.94c-2.1,5.07-5.16,4.63-5.16,4.63H278.72c-10.33,1.28-13.88-9.92-13.88-9.92L262,262.13l42.59-14.58c11.73-4,17.78-17.16,13.54-29.34L288.45,133c-4.25-12.19-17.18-18.82-28.89-14.79l-109,37.35c-11.73,4-17.78,17.16-13.54,29.34l6.15,17.74-13.73,4.54-1-2.75c-2.29-6.59-9-10.23-15.08-8.16s-9.07,9.1-6.78,15.69l19.47,55.82c2.29,6.59,9,10.23,15.08,8.16s9.07-9.1,6.76-15.69l-1.3-3.76,13.71-4.54,6.32,18.17c4.25,12.19,17.18,18.82,28.91,14.79l43-14.72,5,22.76c2.58,14.41,16.46,16,16.46,16h31c3,.51,4.63,3.31,5.5,5.89v4.05a12.26,12.26,0,0,0,24.52,0V276.9a12.25,12.25,0,0,0-12.28-12.16ZM254.81,150.45a16.22,16.22,0,1,1-16.34,16.22,16.28,16.28,0,0,1,16.34-16.22Zm0,0"/></g><text class="cls-4" transform="translate(47.56 89.22)">点击查看<tspan class="cls-5"><tspan x="0" y="57.6">实时监控</tspan></tspan></text></g></g></svg>