<svg xmlns="http://www.w3.org/2000/svg" xmlns:xlink="http://www.w3.org/1999/xlink" viewBox="0 0 318 324"><defs><style>.cls-1{fill:none;}.cls-2,.cls-5{fill:#3899e8;}.cls-2{opacity:0.1;}.cls-3{clip-path:url(#clip-path);}.cls-4{font-size:36px;fill:#424242;font-family:MicrosoftYaHei, Microsoft YaHei;}.cls-5{font-size:48px;font-family:MicrosoftYaHei-Bold, Microsoft YaHei;font-weight:700;}</style><clipPath id="clip-path"><rect class="cls-1" width="318" height="312" rx="20.97" ry="20.97"/></clipPath></defs><title>资源 16</title><g id="图层_2" data-name="图层 2"><g id="图层_1-2" data-name="图层 1"><rect class="cls-2" width="318" height="312" rx="20.97" ry="20.97"/><g class="cls-3"><path class="cls-2" d="M255,137.6c.8-1.6,0-4-.8-5.6-4-1.6-8-2.4-12-4a8.19,8.19,0,0,0-4,4.8L231,159.2c5.6,1.6,10.4,3.2,15.2,6.4Zm26.4,79.2,32-8.8a93.57,93.57,0,0,0-4-16h0l-32,8.8C279.8,205.6,280.6,211.2,281.4,216.8Zm12.8-52a2.48,2.48,0,0,1,.8-1.6,139.28,139.28,0,0,0-9.6-11.2,2.94,2.94,0,0,0-2.4.8l-22.4,22.4c4,4,8,8,11.2,12.8Zm-14.4,76A67,67,0,0,1,215,291.2a66.4,66.4,0,0,1,0-132.8V124a100,100,0,1,0,98.4,116.8ZM199,257.6,249.4,224,199,190.4Z"/></g><text class="cls-4" transform="translate(42.56 89.22)">点击查询<tspan class="cls-5"><tspan x="0" y="57.6">录像回放</tspan></tspan></text></g></g></svg>