<svg xmlns="http://www.w3.org/2000/svg" viewBox="0 0 126.88 31.48"><defs><style>.cls-1{fill:#fff;}</style></defs><title>资源 55</title><g id="图层_2" data-name="图层 2"><g id="背景"><path class="cls-1" d="M24.3,13A9,9,0,0,1,8.9,21.58h7.39L24.12,13H16.29l-7.6,8.36A9,9,0,0,1,21.44,8.78h8.42A15.84,15.84,0,1,0,31.23,13Z"/><path class="cls-1" d="M55.12,22.74H50.44a.16.16,0,0,0-.15.15v1a.2.2,0,0,1-.15.18H47.62c-.09,0-.13-.1-.15-.22V23a.16.16,0,0,0-.15-.15H40.83a.16.16,0,0,1-.15-.15V8.85c0-.11.06-.17.15-.18h6.51a.16.16,0,0,0,.15-.15v-1a.16.16,0,0,1,.15-.15h2.52a.16.16,0,0,1,.15.15v1a.16.16,0,0,0,.15.15h6.5c.09,0,.13.07.15.18V21A1.74,1.74,0,0,1,55.12,22.74ZM47.33,11.12H43.57c-.12,0-.18.09-.18.18v9c0,.09.06.13.18.15h3.76a.16.16,0,0,0,.15-.15v-9A.2.2,0,0,0,47.33,11.12Zm7.05,9.21v-9a.24.24,0,0,0-.18-.18H50.44a.2.2,0,0,0-.15.18v9c0,.07.06.11.15.11H54.2A.17.17,0,0,0,54.39,20.32Z"/><path class="cls-1" d="M69.44,18.31l-1.06,4.09a2,2,0,0,1-2,1.57H63.66c-.09,0-.13,0-.15-.11V21.71a.16.16,0,0,1,.15-.15h1.46a.58.58,0,0,0,.51-.47l.91-3a.14.14,0,0,1,.15-.11h2.56C69.42,18,69.49,18.11,69.44,18.31ZM63.77,7.13H66.7a.27.27,0,0,1,.18.15l.84,2.08a.87.87,0,0,0,.88.44h.73a.16.16,0,0,1,.18.15v1.94c0,.09-.07.13-.18.15H67.06a1.88,1.88,0,0,1-2-.88l-1.39-3.8C63.63,7.23,63.66,7.16,63.77,7.13Zm3,5.63.84,1.9a.67.67,0,0,0,.73.44h1.06a.16.16,0,0,1,.15.15V17a.2.2,0,0,1-.15.18H66.7a1.66,1.66,0,0,1-1.64-.91L63.77,13q-.09-.31.15-.37h2.7A.27.27,0,0,1,66.81,12.76Zm6.43-3H70c-.12,0-.18-.06-.18-.15V7.53c0-.11.06-.17.18-.18H80.29c.09,0,.13.07.15.18V9.65a.16.16,0,0,1-.15.15h-4c-.09,0-.13,0-.15.15V21.42a.16.16,0,0,0,.15.15h4a.16.16,0,0,1,.15.15v2.16a.13.13,0,0,1-.15.11H69a.1.1,0,0,1-.11-.11V21.71a.13.13,0,0,1,.11-.15h4.24c.07,0,.11-.06.11-.15V9.95C73.37,9.85,73.32,9.8,73.24,9.8Z"/><path class="cls-1" d="M87.12,23.87V7.28a.16.16,0,0,1,.15-.15h16a.16.16,0,0,1,.15.15V22.66A1.22,1.22,0,0,1,102.07,24H87.27C87.18,24,87.13,23.94,87.12,23.87ZM100.64,9.43H90.08a.26.26,0,0,0-.22.22v12a.3.3,0,0,0,.22.26h10.56a.29.29,0,0,0,.26-.26v-12C100.88,9.53,100.8,9.46,100.64,9.43Zm-4.28,4.9h3.54a.17.17,0,0,1,.18.11v1.79a.2.2,0,0,1-.18.15H96.37q-.13,0-.15.18v2.19a.13.13,0,0,0,.15.11h1.35a.13.13,0,0,0,.15-.11V17.47a.16.16,0,0,1,.15-.15h1.9a.2.2,0,0,1,.18.15V19.7A1.17,1.17,0,0,1,98.78,21H90.63a.17.17,0,0,1-.18-.11V19a.23.23,0,0,1,.18-.18h3a.1.1,0,0,0,.11-.11V16.56q0-.16-.11-.18h-3a.2.2,0,0,1-.18-.15V14.44a.17.17,0,0,1,.18-.11h3c.07,0,.11-.06.11-.15V12.76a.13.13,0,0,0-.11-.15h-3a.2.2,0,0,1-.18-.15V10.64a.23.23,0,0,1,.18-.18H100a.21.21,0,0,1,.18.18v1.83c0,.09-.07.13-.18.15H96.37a.16.16,0,0,0-.15.15v1.43A.16.16,0,0,0,96.37,14.33Z"/><path class="cls-1" d="M115.8,14.84c-.07,0-.07,0,0,.07a1.39,1.39,0,0,1,.84,1.32V22.3q0,1-1.17,1h-2.81a.16.16,0,0,0-.15.15V24a.16.16,0,0,1-.15.15h-2.3a.16.16,0,0,1-.15-.15V7.42a.16.16,0,0,1,.15-.15h6.43a.16.16,0,0,1,.15.15v6.21Q116.61,14.72,115.8,14.84Zm-2-5.26h-1.1a.24.24,0,0,0-.22.22v3.84a.22.22,0,0,0,.22.22h1.1a.27.27,0,0,0,.26-.22V9.8A.3.3,0,0,0,113.83,9.58Zm-1.32,6.8v4.57a.22.22,0,0,0,.22.22h1.1a.27.27,0,0,0,.26-.22V16.38a.3.3,0,0,0-.26-.22h-1.1A.24.24,0,0,0,112.51,16.38Zm5.12,4.86.66-5.66a.16.16,0,0,1,.15-.15h1.9a.16.16,0,0,1,.15.15l-.73,6.69q0,1.35-1.06,1.46h-1.57a.23.23,0,0,1-.18-.18V21.75a.17.17,0,0,1,.18-.11h.26Q117.63,21.6,117.63,21.24Zm-.29-14h9a.16.16,0,0,1,.15.15V9.51a.16.16,0,0,1-.15.15h-9a.16.16,0,0,1-.15-.15V7.42A.16.16,0,0,1,117.34,7.28Zm9,7.05h-3a.16.16,0,0,0-.15.15v8.33A1.08,1.08,0,0,1,122.05,24h-1.9a.16.16,0,0,1-.15-.15v-2c0-.07.06-.11.15-.11h.33q.16,0,.18-.15V14.48c0-.09-.07-.13-.18-.15h-3.14a.16.16,0,0,1-.15-.15V12a.2.2,0,0,1,.15-.18h9a.1.1,0,0,1,.11.11v2.27C126.47,14.27,126.44,14.32,126.36,14.33Zm-2.52,1.1h1.75a.1.1,0,0,1,.11.11l.47,5.66q0,.42.22.44h.37a.1.1,0,0,1,.11.11v1.79a.2.2,0,0,1-.15.18h-1.64a.86.86,0,0,1-.78-.45,1.88,1.88,0,0,1-.21-.87l-.47-6.83C123.63,15.49,123.71,15.44,123.84,15.43Z"/></g></g></svg>