<svg xmlns="http://www.w3.org/2000/svg" viewBox="0 0 100 100"><defs><style>.cls-1{fill:#fff;}.cls-1,.cls-2,.cls-3,.cls-4,.cls-5,.cls-6{fill-rule:evenodd;}.cls-2{fill:#1295db;}.cls-3{fill:#edd4a0;}.cls-4{fill:#5c4847;}.cls-5{fill:#b8c8c2;}.cls-6{fill:#55a47d;}.cls-7{fill:none;}</style></defs><title>资源 33</title><g id="图层_2" data-name="图层 2"><g id="背景"><path class="cls-1" d="M0,50A50,50,0,1,0,25,6.7,50,50,0,0,0,0,50"/><path class="cls-2" d="M73.2,82.77a47.25,47.25,0,0,0-8.13-2.28h0q-2.56-.51-5.39-.84A37.94,37.94,0,0,1,50,80.83a38,38,0,0,1-9.69-1.18c-2,.23-4,.54-5.78.91.16.06.33.1.49.15l.17.05L35,80.71c-.16,0-.33-.09-.49-.15a46.86,46.86,0,0,0-7.71,2.19,36.75,36.75,0,0,0-8.5,5.94,50,50,0,0,0,63.36,0,36.34,36.34,0,0,0-8.48-5.9Z"/><path class="cls-3" d="M71.94,43.37a2.39,2.39,0,0,0-2,.26,27.84,27.84,0,0,0-1.76-10.8H31.83a28.14,28.14,0,0,0-1.76,11.29,2.4,2.4,0,0,0-2-.27c-1.81.68-2.36,3.93-1.25,7.25s3.49,5.46,5.3,4.78A39.46,39.46,0,0,0,38.89,69.1a22.26,22.26,0,0,0,1.49,1.68v8.86h-.07A38,38,0,0,0,50,80.83a37.94,37.94,0,0,0,9.68-1.18h-.09V70.79c.51-.53,1-1.1,1.5-1.7a39.47,39.47,0,0,0,6.8-13.19c0-.15,4.3,0,5.29-5.29,1.12-3.32.56-6.56-1.24-7.24Z"/><path class="cls-4" d="M68.14,33A37.28,37.28,0,0,0,69.9,44.26S78.56,19.1,62.29,19.1c0,0-42.16-14.66-32.22,25.67a9.83,9.83,0,0,0,.78,2C37.52,36.94,59.64,40.14,68.14,33Z"/><polygon class="cls-5" points="31.34 91.22 40.38 91.22 40.38 92.76 31.34 92.76 31.34 91.22 31.34 91.22"/><path class="cls-5" d="M50,80.82a11,11,0,0,0,7.22,4.51s2.65-3.52,2.46-5.68L50,80.82Z"/><path class="cls-5" d="M50,80.83a11.05,11.05,0,0,1-7.22,4.5s-2.65-3.52-2.46-5.68L50,80.83Z"/><path class="cls-6" d="M49,83.4a.91.91,0,0,0,.46.79.92.92,0,0,0,.91,0,.9.9,0,0,0,.45-.79.91.91,0,0,0-1.36-.79.94.94,0,0,0-.46.79"/><path class="cls-6" d="M49,86.9a.91.91,0,0,0,1.36.79.94.94,0,0,0,.46-.79.91.91,0,0,0-1.82,0"/><path class="cls-6" d="M49,90.45a.9.9,0,0,0,.45.79.92.92,0,0,0,.91,0A.91.91,0,1,0,49,90.45"/><rect class="cls-7" x="19.24" y="7.82" width="59.6" height="33.6"/></g></g></svg>