<svg xmlns="http://www.w3.org/2000/svg" viewBox="0 0 51 51"><defs><style>.cls-1{fill:#3899e8;}.cls-2{fill:#fff;fill-rule:evenodd;}</style></defs><title>资源 26</title><g id="图层_2" data-name="图层 2"><g id="图层_1-2" data-name="图层 1"><circle class="cls-1" cx="25.5" cy="25.5" r="25.5"/><path class="cls-2" d="M30.14,32.5a9.67,9.67,0,0,0-.38-2.41,4.75,4.75,0,0,0-2-2.29c-.69-.48-1.27-.9-1.27-1.72s.54-1.26,1.27-1.91a12.83,12.83,0,0,0,1.69-2A2.68,2.68,0,0,0,30,20.7H20.49a3.86,3.86,0,0,0,.46,1.44,8.83,8.83,0,0,0,1.83,1.95c.74.63,1.32,1.11,1.32,1.93s-.63,1.22-1.32,1.72a4.22,4.22,0,0,0-2.09,2.35,7.47,7.47,0,0,0-.34,2.41h9.79ZM16.23,34c0-.89.21-1.51,1.08-1.51h.75a15.45,15.45,0,0,1,.48-2.94c.32-1.81,1.88-2.9,2.84-3.6,0-.05,0-.07-.05-.07a8.74,8.74,0,0,1-2.21-2.21,8.49,8.49,0,0,1-1.27-4.62H17.3c-.89,0-1.08-1.08-1.08-2V16.9c0-.9.6-1.22,1.51-1.22H32.86c.87,0,1.59.31,1.59,1.22v.17c0,.92-.36,2-1.2,2h-.6a9.14,9.14,0,0,1-1.28,4.62,14.82,14.82,0,0,1-2.12,2.24c-.14.05-.07,0-.12,0,1,.94,2.19,1.62,2.84,3.6a17.63,17.63,0,0,1,.43,2.94h.86c.84,0,1.2.63,1.2,1.51v.26c0,.85-.36,1.65-1.2,1.65H17.3c-.89,0-1.08-.8-1.08-1.65V34Z"/></g></g></svg>