<svg xmlns="http://www.w3.org/2000/svg" viewBox="0 0 51 51"><defs><style>.cls-1{fill:#848484;}.cls-2{fill:#fff;fill-rule:evenodd;}</style></defs><title>资源 25</title><g id="图层_2" data-name="图层 2"><g id="图层_1-2" data-name="图层 1"><circle class="cls-1" cx="25.5" cy="25.5" r="25.5"/><path class="cls-2" d="M35,19.54a.64.64,0,0,0,0-.9l-2.72-2.71a.64.64,0,0,0-.91,0L27.31,20a2.66,2.66,0,0,1-3.76,0L19.5,16a.64.64,0,0,0-.91,0l-2.72,2.71a.64.64,0,0,0,0,.9l4.05,4a2.66,2.66,0,0,1,0,3.76l-4.06,4.06a.64.64,0,0,0,0,.9L18.6,35.1a.64.64,0,0,0,.91,0L23.57,31a2.66,2.66,0,0,1,3.76,0l4.1,4.08a.64.64,0,0,0,.91,0L35,32.4a.64.64,0,0,0,0-.9l-4.1-4.08a2.66,2.66,0,0,1,0-3.76Z"/></g></g></svg>