<svg xmlns="http://www.w3.org/2000/svg" viewBox="0 0 59.2 59.2"><defs><style>.cls-1{fill:#34d661;}</style></defs><title>资源 3</title><g id="图层_2" data-name="图层 2"><g id="图层_1-2" data-name="图层 1"><path class="cls-1" d="M15.36,14.37a1.47,1.47,0,0,0,1.06.42H47.91a1.46,1.46,0,0,0,1.47-1.48L49.33,1.47A1.48,1.48,0,0,0,47.84,0H16.34a1.47,1.47,0,0,0-1.48,1.48l.06,11.84A1.47,1.47,0,0,0,15.36,14.37Zm5.13-8.74a2.54,2.54,0,0,1,4.32,1.76,2.51,2.51,0,0,1-2.54,2.47h0a2.46,2.46,0,0,1-1.79-4.23Z"/><polygon class="cls-1" points="47.84 0 47.84 0 47.84 0 47.84 0"/><path class="cls-1" d="M58.76,27.64a1.46,1.46,0,0,0-1-.42H39.49L27.13,22.17h0l-12.35,5H6.41A1.48,1.48,0,0,1,5,25.64V10.89A1.48,1.48,0,0,1,6.4,9.37h1v1c0,.59.51.79,1.14.47l5.65-3h0c.63-.33.63-.88,0-1.21l-5.65-3c-.63-.34-1.14-.13-1.14.46V5.62H1.5A1.49,1.49,0,0,0,0,7.12V30.64a1.47,1.47,0,0,0,1.47,1.51H14.79L27.13,37h0l12.35-4.83H59.2V28.67A1.46,1.46,0,0,0,58.76,27.64Z"/><path class="cls-1" d="M44.42,51.36l0-5.47a1.48,1.48,0,0,0-1.49-1.48H11.4a1.47,1.47,0,0,0-1.47,1.48L10,57.73a1.47,1.47,0,0,0,1.49,1.47H43a1.46,1.46,0,0,0,1.47-1.47l0-5.95A.67.67,0,0,1,44.42,51.36ZM37,54.23a2.47,2.47,0,0,1,0-4.93h0a2.47,2.47,0,0,1,0,4.93Z"/><path class="cls-1" d="M54.28,47.87a1.48,1.48,0,0,1-1.45,1.46H49.33v4.84h8.37a1.46,1.46,0,0,0,1.49-1.45V32.14H54.28Z"/><path class="cls-1" d="M48.54,48l-3.83,3a.82.82,0,0,0-.29.4v.42a.84.84,0,0,0,.29.4h0l3.83,3c.43.33.78.13.78-.47V48.43C49.32,47.84,49,47.63,48.54,48Z"/></g></g></svg>