<svg xmlns="http://www.w3.org/2000/svg" viewBox="0 0 94 94"><defs><style>.cls-1{fill:#3899e8;}.cls-2{fill:#efefef;fill-rule:evenodd;}</style></defs><title>资源 11</title><g id="图层_2" data-name="图层 2"><g id="图层_1-2" data-name="图层 1"><circle class="cls-1" cx="47" cy="47" r="47"/><path class="cls-2" d="M70.53,62.73a10.7,10.7,0,0,1-.33,2.32,13,13,0,0,1-.69,2.26q-.7,1.65-4,3.5a12.78,12.78,0,0,1-6.15,1.69,12.33,12.33,0,0,1-1.73-.12,14,14,0,0,1-1.9-.41c-.71-.2-1.23-.36-1.57-.48l-1.83-.68-1.62-.59a30,30,0,0,1-5.78-2.74,48.92,48.92,0,0,1-8.73-7.12A49,49,0,0,1,29,51.63a29.87,29.87,0,0,1-2.74-5.78q-.1-.3-.59-1.62c-.33-.88-.56-1.49-.68-1.84s-.28-.86-.48-1.57a13.65,13.65,0,0,1-.41-1.9A12.26,12.26,0,0,1,24,37.2a12.77,12.77,0,0,1,1.69-6.14q1.85-3.34,3.5-4a13.06,13.06,0,0,1,2.26-.69A11.1,11.1,0,0,1,33.8,26a1.82,1.82,0,0,1,.69.1q.59.2,1.75,2.51c.24.42.57,1,1,1.78s.8,1.47,1.15,2.1.69,1.22,1,1.77l.58.83a9.37,9.37,0,0,1,.71,1.17,2.17,2.17,0,0,1,.23.94A2.75,2.75,0,0,1,40,38.85a16.09,16.09,0,0,1-2,1.82,19.88,19.88,0,0,0-2,1.75A2.53,2.53,0,0,0,35,43.93a2.27,2.27,0,0,0,.17.74c.11.3.2.52.28.68s.23.42.46.79.36.58.38.63A34.65,34.65,0,0,0,42,54.53a34.76,34.76,0,0,0,7.76,5.75l.63.38c.37.23.64.38.79.46a6.15,6.15,0,0,0,.68.28,2.25,2.25,0,0,0,.74.16,2.52,2.52,0,0,0,1.52-.94,20,20,0,0,0,1.75-2.05,15.8,15.8,0,0,1,1.82-2,2.72,2.72,0,0,1,1.65-.94,2.1,2.1,0,0,1,.94.23,8.87,8.87,0,0,1,1.17.71l.83.58c.55.33,1.14.67,1.77,1l2.09,1.15c.77.42,1.36.75,1.78,1q2.31,1.15,2.51,1.75a1.68,1.68,0,0,1,.1.69Z"/></g></g></svg>