<svg xmlns="http://www.w3.org/2000/svg" viewBox="0 0 94 94"><defs><style>.cls-1{fill:#3899e8;}.cls-2{fill:#efefef;fill-rule:evenodd;}</style></defs><title>资源 13</title><g id="图层_2" data-name="图层 2"><g id="图层_1-2" data-name="图层 1"><circle class="cls-1" cx="47" cy="47" r="47"/><path class="cls-2" d="M62.66,28.57H30.46a5.35,5.35,0,0,0-5.34,5.35v0l20.19,12.8a3.78,3.78,0,0,0,3.6,0L68,34.2v-.29a5.35,5.35,0,0,0-5.34-5.35ZM25.12,38.34V60.56a5.35,5.35,0,0,0,5.34,5.35H62.66A5.35,5.35,0,0,0,68,60.56V38.64L51.19,50.11a8,8,0,0,1-8.11.06l-18-11.83Z"/></g></g></svg>