<svg xmlns="http://www.w3.org/2000/svg" viewBox="0 0 94 94"><defs><style>.cls-1{fill:#3899e8;}.cls-2{fill:#efefef;fill-rule:evenodd;}</style></defs><title>资源 12</title><g id="图层_2" data-name="图层 2"><g id="图层_1-2" data-name="图层 1"><circle class="cls-1" cx="47" cy="47" r="47"/><path class="cls-2" d="M47.56,27.69c-12.95,0-23.44,8.91-23.44,19.89,0,6,3.16,11.42,8.14,15.07.18.5-.1,7.5-.1,7.5S41,67.2,42.58,67c.18-.11,3.27.45,5,.45C60.51,67.47,71,58.57,71,47.58s-10.49-19.9-23.44-19.9Zm-11.41,15a4,4,0,1,1-4,4,4,4,0,0,1,4-4Zm11.25,8a4,4,0,1,1,4-4,4,4,0,0,1-4,4Zm11,0a4,4,0,1,1,4-4,4,4,0,0,1-4,4Z"/></g></g></svg>