<svg xmlns="http://www.w3.org/2000/svg" viewBox="0 0 42.8 41.23"><defs><style>.cls-1{fill:#C6C6C6;fill-rule:evenodd;}</style></defs><title>资源 15</title><g id="图层_2" data-name="图层 2"><g id="图层_1-2" data-name="图层 1"><path class="cls-1" d="M37.67,0H5.13A5.13,5.13,0,0,0,0,5.13v31a5.13,5.13,0,0,0,5.13,5.13H37.67A5.13,5.13,0,0,0,42.8,36.1v-31A5.13,5.13,0,0,0,37.67,0ZM9.89,10.31h2.43a2.2,2.2,0,1,1,0,4.41H9.89a2.2,2.2,0,0,1,0-4.41ZM34.36,31H9.89a2.2,2.2,0,0,1,0-4.41H34.36a2.2,2.2,0,0,1,0,4.41Zm0-7.83H9.89a2.2,2.2,0,0,1,0-4.41H34.36a2.2,2.2,0,0,1,0,4.41Zm0-8.49H19a2.2,2.2,0,1,1,0-4.41H34.36a2.2,2.2,0,0,1,0,4.41Z"/></g></g></svg>