<svg xmlns="http://www.w3.org/2000/svg" viewBox="0 0 31.83 37.13"><defs><style>.cls-1{fill:#fff;fill-rule:evenodd;}</style></defs><title>资源 18</title><g id="图层_2" data-name="图层 2"><g id="图层_1-2" data-name="图层 1"><path class="cls-1" d="M29.18,23.87a2.85,2.85,0,0,1,2.65,2.65,2.85,2.85,0,0,1-2.65,2.65H2.65A2.85,2.85,0,0,1,0,26.52a2.85,2.85,0,0,1,2.65-2.65V13.26A13.13,13.13,0,0,1,15.91,0,13.13,13.13,0,0,1,29.18,13.26V23.87ZM15.91,37.13a5.32,5.32,0,0,1-5.3-5.3H21.22a5.32,5.32,0,0,1-5.3,5.3Z"/></g></g></svg>