<svg xmlns="http://www.w3.org/2000/svg" viewBox="0 0 29 29"><defs><style>.cls-1{fill:#29961a;}</style></defs><title>资源 20</title><g id="图层_2" data-name="图层 2"><g id="图层_1-2" data-name="图层 1"><path class="cls-1" d="M14.5,0C6.49,0,0,5.68,0,12.69a12.15,12.15,0,0,0,5.44,9.9V29l6.35-3.85a16.72,16.72,0,0,0,2.71.23c8,0,14.5-5.68,14.5-12.69S22.51,0,14.5,0ZM7.25,14.5a1.81,1.81,0,1,1,1.81-1.81A1.81,1.81,0,0,1,7.25,14.5Zm7.25,0a1.81,1.81,0,1,1,1.81-1.81A1.81,1.81,0,0,1,14.5,14.5Zm7.25,0a1.81,1.81,0,1,1,1.81-1.81,1.81,1.81,0,0,1-1.81,1.81Zm0,0"/></g></g></svg>