<svg xmlns="http://www.w3.org/2000/svg" viewBox="0 0 60.24 58.03"><defs><style>.cls-1{fill:#e5e551;fill-rule:evenodd;}</style></defs><title>资源 4</title><g id="图层_2" data-name="图层 2"><g id="图层_1-2" data-name="图层 1"><path class="cls-1" d="M53,0H7.22A7.22,7.22,0,0,0,0,7.22V50.81A7.22,7.22,0,0,0,7.22,58H53a7.22,7.22,0,0,0,7.22-7.22V7.22A7.22,7.22,0,0,0,53,0ZM13.91,14.52h3.43a3.1,3.1,0,1,1,0,6.2H13.91a3.1,3.1,0,0,1,0-6.2ZM48.35,43.68H13.91a3.1,3.1,0,0,1,0-6.2H48.35a3.1,3.1,0,0,1,0,6.2Zm0-11H13.91a3.1,3.1,0,0,1,0-6.2H48.35a3.1,3.1,0,0,1,0,6.2Zm0-11.94H26.78a3.1,3.1,0,1,1,0-6.2H48.35a3.1,3.1,0,0,1,0,6.2Z"/></g></g></svg>