<svg xmlns="http://www.w3.org/2000/svg" viewBox="0 0 37.83 34.09"><defs><style>.cls-1{fill:#fff;fill-rule:evenodd;}</style></defs><title>资源 30</title><g id="图层_2" data-name="图层 2"><g id="图层_1-2" data-name="图层 1"><path class="cls-1" d="M35.79,7.38a13,13,0,0,1,1.42,1.33A2,2,0,0,1,37.83,10a1.48,1.48,0,0,1-.56,1.19q-.56.46-1.37,1l-2.6,1.94-2.6,1.92-2.17,1.58q-.94.67-1.33.9a2.65,2.65,0,0,1-2,.56,1.23,1.23,0,0,1-.89-.83V13.89H24.2a18.48,18.48,0,0,0-5.12.63,11.3,11.3,0,0,0-3.85,1.92,12.83,12.83,0,0,0-2.89,3.19A25.66,25.66,0,0,0,10.12,24a.87.87,0,0,1-.23-.42,6.59,6.59,0,0,1-.13-.89q-.06-.58-.06-1.62a18.19,18.19,0,0,1,1-6,14.81,14.81,0,0,1,2.81-4.91,13,13,0,0,1,4.43-3.29,13.42,13.42,0,0,1,5.83-1.15l.33,0,.33,0,0-4A1.84,1.84,0,0,1,25.24.17q.81-.48,2,.4l1.4,1.12L31,3.5l2.58,2.06,2.23,1.83ZM29.36,21.85a2.07,2.07,0,0,1,1.79.71,3.46,3.46,0,0,1,.52,2.06v5a4.66,4.66,0,0,1-1.12,3.19,3.64,3.64,0,0,1-3,1.23l-23-.15a4.16,4.16,0,0,1-1.65-.35,4.57,4.57,0,0,1-1.44-1,5.15,5.15,0,0,1-1-1.52,4.77,4.77,0,0,1-.4-2V6.81A4.56,4.56,0,0,1,1.14,3.65,3.93,3.93,0,0,1,4.31,2.42l7.81.08a4.34,4.34,0,0,1,.89.1,2.1,2.1,0,0,1,.83.37,2.23,2.23,0,0,1,.62.71,2.29,2.29,0,0,1,.25,1.14,2.08,2.08,0,0,1-.27,1.1,2.28,2.28,0,0,1-.71.73,3.23,3.23,0,0,1-1,.42,4.05,4.05,0,0,1-1,.13L8,7.15A3,3,0,0,0,5.7,8.1a3.36,3.36,0,0,0-.85,2.33V25.66a3.58,3.58,0,0,0,.29,1.46,3.25,3.25,0,0,0,.77,1.1A3.68,3.68,0,0,0,7,28.91a3.11,3.11,0,0,0,1.21.25l15.7.15A2.56,2.56,0,0,0,26,28.43a3.49,3.49,0,0,0,.79-2.35V24.43a2.41,2.41,0,0,1,2.54-2.58Z"/></g></g></svg>