<svg xmlns="http://www.w3.org/2000/svg" viewBox="0 0 77.18 68.32"><defs><style>.cls-1{fill:#848484;}.cls-2{fill:#fff;fill-rule:evenodd;}</style></defs><title>资源 3</title><g id="图层_2" data-name="图层 2"><g id="图层_1-2" data-name="图层 1"><path class="cls-1" d="M76.1,57.16l-32-53.88a6.39,6.39,0,0,0-11.16,0L.87,57.64C-1.56,62,1.35,68.32,6.69,68.32H70.76C75.62,68.32,79,61.52,76.1,57.16Z"/><path class="cls-2" d="M52.51,36a.91.91,0,0,0,0-1.29l-3.89-3.88a.92.92,0,0,0-1.3,0l-5.89,5.9a3.81,3.81,0,0,1-5.38,0L30.23,31a.92.92,0,0,0-1.3,0L25,34.88a.91.91,0,0,0,0,1.29L30.85,42a3.81,3.81,0,0,1,0,5.39L25,53.17a.91.91,0,0,0,0,1.29l3.89,3.88a.92.92,0,0,0,1.3,0l5.83-5.83a3.81,3.81,0,0,1,5.38,0l5.87,5.84a.92.92,0,0,0,1.3,0l3.89-3.88a.91.91,0,0,0,0-1.29l-5.87-5.85a3.81,3.81,0,0,1,0-5.39Z"/></g></g></svg>