<svg xmlns="http://www.w3.org/2000/svg" viewBox="0 0 77.71 68.79"><defs><style>.cls-1{fill:#d3d326;}.cls-2{fill:#fff;fill-rule:evenodd;}</style></defs><title>资源 5</title><g id="图层_2" data-name="图层 2"><g id="图层_1-2" data-name="图层 1"><path class="cls-1" d="M76.63,57.55,44.37,3.3a6.44,6.44,0,0,0-11.24,0L.87,58c-2.44,4.4.49,10.75,5.87,10.75H71.25C76.14,68.79,79.56,61.95,76.63,57.55Z"/><path class="cls-2" d="M59.82,54.72,47.17,42.07A12.58,12.58,0,0,0,30.68,25.57l6,6a3.14,3.14,0,0,1,0,4.45l-2.22,2.22a3.14,3.14,0,0,1-4.45,0l-6-6A12.58,12.58,0,0,0,40.5,48.74L53.15,61.39a3.14,3.14,0,0,0,4.45,0l2.22-2.22a3.14,3.14,0,0,0,0-4.45h0m0,0"/></g></g></svg>