<svg xmlns="http://www.w3.org/2000/svg" viewBox="0 0 77.18 68.32"><defs><style>.cls-1{fill:#3899e8;}.cls-2{fill:#fff;fill-rule:evenodd;}</style></defs><title>资源 2</title><g id="图层_2" data-name="图层 2"><g id="图层_1-2" data-name="图层 1"><path class="cls-1" d="M76.1,57.16l-32-53.88a6.39,6.39,0,0,0-11.16,0L.87,57.64C-1.56,62,1.35,68.32,6.69,68.32H70.76C75.62,68.32,79,61.52,76.1,57.16Z"/><path class="cls-2" d="M45.47,51.42A13.85,13.85,0,0,0,44.93,48c-.4-1.46-1.84-2.56-2.87-3.29s-1.81-1.29-1.81-2.46.77-1.81,1.81-2.74a18.38,18.38,0,0,0,2.43-2.84,3.85,3.85,0,0,0,.78-2.12H31.64a5.53,5.53,0,0,0,.66,2.07,12.66,12.66,0,0,0,2.62,2.79c1.05.9,1.89,1.59,1.89,2.76s-.91,1.74-1.89,2.46c-1.23.72-2.67,1.92-3,3.36-.34.82-.29,1.19-.49,3.46h14ZM25.53,53.58c0-1.27.29-2.17,1.54-2.17h1.08a22.14,22.14,0,0,1,.69-4.21c.46-2.59,2.7-4.16,4.07-5.15,0-.07,0-.1-.07-.1a12.53,12.53,0,0,1-3.16-3.16,12.17,12.17,0,0,1-1.81-6.62h-.78c-1.27,0-1.54-1.54-1.54-2.86v-.25c0-1.29.86-1.74,2.16-1.74H49.37c1.25,0,2.28.45,2.28,1.74v.25c0,1.32-.51,2.86-1.72,2.86h-.86c-.2,2.49-.56,4.81-1.84,6.62a21.24,21.24,0,0,1-3,3.21c-.2.07-.1,0-.17.05,1.47,1.34,3.14,2.32,4.07,5.15a25.27,25.27,0,0,1,.61,4.21h1.23c1.2,0,1.72.9,1.72,2.17V54c0,1.22-.51,2.36-1.72,2.36H27.08c-1.27,0-1.54-1.15-1.54-2.36v-.37Z"/></g></g></svg>