<svg xmlns="http://www.w3.org/2000/svg" viewBox="0 0 52.25 35.66"><defs><style>.cls-1{fill:#C6C6C6;fill-rule:evenodd;}</style></defs><title>资源 16</title><g id="图层_2" data-name="图层 2"><g id="图层_1-2" data-name="图层 1"><path class="cls-1" d="M42.09,13.06h0A13,13,0,0,0,29.23,0a12.8,12.8,0,0,0-11.4,7,10.31,10.31,0,0,0-3.32-.62,8.1,8.1,0,0,0-8.09,8.09,6.13,6.13,0,0,0,.41,2.07A10,10,0,0,0,0,26a9.81,9.81,0,0,0,9.84,9.62h8.62a1,1,0,0,0,1-1V26.95a1,1,0,0,0-1-1h-2.9a1,1,0,0,1-.73-1.76L25.39,13.58a1,1,0,0,1,1.46,0L37.42,24.15a1,1,0,0,1-.73,1.76h-2.9a1,1,0,0,0-1,1v7.68a1,1,0,0,0,1,1H42.5v-.21a11.55,11.55,0,0,0,9.74-11.2c-.41-5.81-4.77-10.57-10.16-11.2Z"/></g></g></svg>