<svg xmlns="http://www.w3.org/2000/svg" viewBox="0 0 61.68 46.87"><defs><style>.cls-1{fill:#C6C6C6;fill-rule:evenodd;}</style></defs><title>资源 14</title><g id="图层_2" data-name="图层 2"><g id="图层_1-2" data-name="图层 1"><path class="cls-1" d="M58,46.87H3.7A3.7,3.7,0,0,1,0,43.17V11.1A3.7,3.7,0,0,1,3.7,7.4H14.8c3.7,0,4.93-7.4,7.4-7.4h16c3.67,0,5.07,7.4,8.64,7.4H58a3.7,3.7,0,0,1,3.7,3.7V43.17a3.7,3.7,0,0,1-3.7,3.7ZM30.84,11.1a14.8,14.8,0,1,0,14.8,14.8,14.8,14.8,0,0,0-14.8-14.8Zm17.89,0A1.85,1.85,0,1,0,50.58,13a1.85,1.85,0,0,0-1.85-1.85ZM30.84,37a11.1,11.1,0,1,1,11.1-11.1A11.1,11.1,0,0,1,30.84,37ZM6.17,3.7A1.23,1.23,0,0,1,7.4,2.47h3.7A1.23,1.23,0,0,1,12.34,3.7V4.93H6.17V3.7Z"/></g></g></svg>