<svg xmlns="http://www.w3.org/2000/svg" viewBox="0 0 40.12 40.12"><defs><style>.cls-1{fill:#c6c6c6;}</style></defs><title>资源 5</title><g id="图层_2" data-name="图层 2"><g id="图层_1-2" data-name="图层 1"><path class="cls-1" d="M10.41,9.74a1,1,0,0,0,.72.29H32.47a1,1,0,0,0,1-1l0-8a1,1,0,0,0-1-1H11.07a1,1,0,0,0-1,1l0,8A1,1,0,0,0,10.41,9.74Zm3.48-5.92A1.72,1.72,0,0,1,16.82,5,1.7,1.7,0,0,1,15.1,6.68h0a1.66,1.66,0,0,1-1.21-2.87Z"/><polygon class="cls-1" points="32.42 0 32.42 0 32.42 0 32.42 0"/><path class="cls-1" d="M39.82,18.73a1,1,0,0,0-.71-.28H26.76L18.39,15h0L10,18.4H4.35a1,1,0,0,1-1-1v-10a1,1,0,0,1,1-1H5V7c0,.4.35.54.77.32l3.83-2h0c.43-.22.43-.6,0-.82l-3.83-2C5.36,2.22,5,2.36,5,2.76v1H1a1,1,0,0,0-1,1V20.76a1,1,0,0,0,1,1h9l8.36,3.27h0l8.37-3.27H40.12V19.43A1,1,0,0,0,39.82,18.73Z"/><path class="cls-1" d="M30.11,34.81l0-3.71a1,1,0,0,0-1-1H7.73a1,1,0,0,0-1,1l0,8a1,1,0,0,0,1,1H29.13a1,1,0,0,0,1-1l0-4A.46.46,0,0,1,30.11,34.81Zm-5,1.94a1.67,1.67,0,0,1,0-3.34h0a1.67,1.67,0,0,1,0,3.34Z"/><path class="cls-1" d="M36.79,32.44a1,1,0,0,1-1,1H33.43v3.28h5.67a1,1,0,0,0,1-1v-14H36.79Z"/><path class="cls-1" d="M32.9,32.51l-2.6,2a.56.56,0,0,0-.2.27v.28a.57.57,0,0,0,.2.27h0l2.6,2c.29.23.53.09.53-.32V32.82C33.43,32.42,33.19,32.28,32.9,32.51Z"/></g></g></svg>