<svg xmlns="http://www.w3.org/2000/svg" viewBox="0 0 53.21 53.21"><defs><style>.cls-1{fill:#e54848;}</style></defs><title>资源 13</title><g id="图层_2" data-name="图层 2"><g id="图层_1-2" data-name="图层 1"><path class="cls-1" d="M26.61,0A26.8,26.8,0,0,0,0,26.61,26.8,26.8,0,0,0,26.61,53.21,26.8,26.8,0,0,0,53.21,26.61,26.8,26.8,0,0,0,26.61,0ZM41.5,16.67c1.42-1.42,3.19-1.77,3.9-1.06s.35,2.48-1.06,3.9-3.19,1.77-3.9,1.07S40.09,18.09,41.5,16.67ZM26.61,7.1c1.06,0,1.77,1.42,1.77,3.55s-.71,3.55-1.77,3.55-1.77-1.42-1.77-3.55S25.54,7.1,26.61,7.1ZM8.51,15.61h0c.71-.71,2.48-.35,3.9,1.07s1.77,3.19,1.06,3.9-2.48.35-3.9-1.06S7.81,16.32,8.51,15.61ZM43.63,39H9.58a1.77,1.77,0,1,1,0-3.55h8.16V26.61a8.87,8.87,0,1,1,17.74,0v8.87h8.16a1.77,1.77,0,1,1,0,3.55Z"/></g></g></svg>