<svg xmlns="http://www.w3.org/2000/svg" viewBox="0 0 52.28 52"><defs><style>.cls-1{fill:#c6c6c6;}</style></defs><title>资源 5</title><g id="图层_2" data-name="图层 2"><g id="图层_1-2" data-name="图层 1"><path class="cls-1" d="M49.3,35.9a3,3,0,0,0-3,3V40.3c-.51,1.23-1.25,1.13-1.25,1.13H42C39.5,41.73,38.64,39,38.64,39l-.69-3.75,10.35-3.54a5.53,5.53,0,0,0,3.29-7.13L44.37,3.88a5.59,5.59,0,0,0-7-3.59L10.86,9.36a5.53,5.53,0,0,0-3.29,7.13l1.5,4.31L5.73,21.9l-.23-.67a3,3,0,0,0-3.66-2A2.93,2.93,0,0,0,.19,23.06L4.92,36.63a3,3,0,0,0,3.66,2,2.93,2.93,0,0,0,1.64-3.81l-.32-.91,3.33-1.1,1.54,4.41a5.6,5.6,0,0,0,7,3.59l10.44-3.58,1.23,5.53a4.76,4.76,0,0,0,4,3.89H45a1.91,1.91,0,0,1,1.34,1.43v1a3,3,0,0,0,6,0V38.85a3,3,0,0,0-3-3ZM36.2,8.13a3.94,3.94,0,1,1-4,3.94,4,4,0,0,1,4-3.94Zm0,0"/></g></g></svg>