<svg xmlns="http://www.w3.org/2000/svg" viewBox="0 0 75.61 75.61"><defs><style>.cls-1{fill:#c6c6c6;}</style></defs><title>资源 14</title><g id="图层_2" data-name="图层 2"><g id="图层_1-2" data-name="图层 1"><path class="cls-1" d="M9.44,31.09,34.66,56.31h0A4.33,4.33,0,0,0,41.09,56L65.33,31.77a4.33,4.33,0,0,0-2.42-7.93H49.35V7.35A7.35,7.35,0,0,0,42,0H33.57a7.35,7.35,0,0,0-7.35,7.35V23.84H12.7a4.33,4.33,0,0,0-3.23,7.22Z"/><path class="cls-1" d="M75.61,46.37a4.5,4.5,0,0,0-9,0V64.16H9V46.37a4.5,4.5,0,1,0-9,0v28.2a1,1,0,0,0,1,1H74.57a1,1,0,0,0,1-1V71.11h0Z"/></g></g></svg>