<svg xmlns="http://www.w3.org/2000/svg" viewBox="0 0 96 96"><defs><style>.cls-1{opacity:0.5;}.cls-2{fill:#fff;opacity:0.7;}</style></defs><title>资源 15</title><g id="图层_2" data-name="图层 2"><g id="图层_1-2" data-name="图层 1"><path class="cls-1" d="M20.5,0H96a0,0,0,0,1,0,0V96a0,0,0,0,1,0,0H0a0,0,0,0,1,0,0V20.5A20.5,20.5,0,0,1,20.5,0Z"/><path class="cls-2" d="M75.2,66.42A6.4,6.4,0,0,1,77,69.7a3.51,3.51,0,0,1-1.08,2.75,3.82,3.82,0,0,1-3.1,1.49,5.62,5.62,0,0,1-3.28-1.37L60.1,63.5a22.2,22.2,0,0,1-5.71,2.72,22.18,22.18,0,0,1-15.13-.79,22.67,22.67,0,0,1-7.05-4.77,22.17,22.17,0,0,1-4.74-7.05,22.44,22.44,0,0,1,0-17.26,22.25,22.25,0,0,1,4.74-7.05,22.59,22.59,0,0,1,7.05-4.77,22.23,22.23,0,0,1,17.32,0A22.45,22.45,0,0,1,68.41,36.34a22.08,22.08,0,0,1,.73,15.27,22.21,22.21,0,0,1-2.84,5.79q.76.82,2.14,2.19t2.75,2.78q1.37,1.4,2.54,2.52ZM47.93,59.34a14.69,14.69,0,1,0,0-29.38,14.32,14.32,0,0,0-5.71,1.14,14.72,14.72,0,0,0-4.65,3.13,15,15,0,0,0-3.16,4.68,14.64,14.64,0,0,0,0,11.47,15.06,15.06,0,0,0,3.16,4.68,14.67,14.67,0,0,0,4.65,3.13,14.34,14.34,0,0,0,5.71,1.14ZM51.5,41h7.31v7.31H51.5v7.31H44.13V48.28H36.87V41h7.26V33.65H51.5Zm0,0"/></g></g></svg>