<svg xmlns="http://www.w3.org/2000/svg" xmlns:xlink="http://www.w3.org/1999/xlink" viewBox="0 0 195.05 194"><defs><style>.cls-1{fill:none;}.cls-2{clip-path:url(#clip-path);}.cls-3{clip-path:url(#clip-path-2);}.cls-4{fill:#3899e8;opacity:0.1;}</style><clipPath id="clip-path" transform="translate(-435.83 -91)"><rect id="SVGID" class="cls-1" x="410" y="65" width="255" height="195"/></clipPath><clipPath id="clip-path-2" transform="translate(-435.83 -91)"><rect id="SVGID-2" data-name="SVGID" class="cls-1" width="665" height="260" rx="20" ry="20"/></clipPath></defs><title>资源 2</title><g id="图层_2" data-name="图层 2"><g id="图层_1-2" data-name="图层 1"><g class="cls-2"><g class="cls-3"><path class="cls-4" d="M619.74,224.93a11.07,11.07,0,0,0-11.11,11v5.38c-1.9,4.59-4.68,4.2-4.68,4.2h-11.4c-9.36,1.16-12.58-9-12.58-9l-2.58-14L616,209.36c10.63-3.65,16.12-15.55,12.27-26.6l-26.9-77.28c-3.85-11-15.57-17.06-26.18-13.41l-98.83,33.86c-10.63,3.65-16.12,15.55-12.27,26.6l5.58,16.08-12.45,4.11-.88-2.49c-2.08-6-8.2-9.28-13.67-7.39s-8.22,8.25-6.15,14.22l17.65,50.6c2.08,6,8.2,9.27,13.67,7.39s8.22-8.25,6.12-14.22l-1.18-3.41,12.42-4.11,5.73,16.47c3.85,11,15.57,17.06,26.21,13.41l38.94-13.34,4.57,20.63C563,263.52,575.58,265,575.58,265h28.09c2.71.46,4.2,3,5,5.34V274a11.11,11.11,0,0,0,22.22,0V236a11.1,11.1,0,0,0-11.13-11Zm-48.87-103.6A14.7,14.7,0,1,1,556.07,136a14.76,14.76,0,0,1,14.81-14.7Zm0,0" transform="translate(-435.83 -91)"/></g></g></g></g></svg>