<svg xmlns="http://www.w3.org/2000/svg" viewBox="0 0 51 51"><defs><style>.cls-1{fill:#d3d326;}.cls-2{fill:#fff;fill-rule:evenodd;}</style></defs><title>资源 28</title><g id="图层_2" data-name="图层 2"><g id="图层_1-2" data-name="图层 1"><circle class="cls-1" cx="25.5" cy="25.5" r="25.5"/><path class="cls-2" d="M37.24,33.13,29.12,25A8.07,8.07,0,0,0,18.53,14.43l3.86,3.86a2,2,0,0,1,0,2.85L21,22.57a2,2,0,0,1-2.85,0l-3.86-3.86A8.07,8.07,0,0,0,24.84,29.29L33,37.41a2,2,0,0,0,2.85,0L37.24,36a2,2,0,0,0,0-2.85h0m0,0"/></g></g></svg>