<svg xmlns="http://www.w3.org/2000/svg" viewBox="0 0 750 1225"><defs><style>.cls-1,.cls-11{fill:#fff;}.cls-10,.cls-2,.cls-5,.cls-9{fill:#3899e8;}.cls-2{opacity:0.1;}.cls-3{fill:#d0d81d;}.cls-4{font-size:24.11px;}.cls-12,.cls-20,.cls-4,.cls-6{fill:#848484;}.cls-20,.cls-4{font-family:MicrosoftYaHei, Microsoft YaHei;}.cls-13,.cls-5,.cls-6,.cls-7,.cls-8{font-size:18.66px;}.cls-13,.cls-5,.cls-6,.cls-7,.cls-8,.cls-9{font-family:MicrosoftYaHei-Bold, Microsoft YaHei;font-weight:700;}.cls-15,.cls-7{fill:#e54848;}.cls-16,.cls-8{fill:#d3d326;}.cls-9{font-size:41.14px;}.cls-11,.cls-15,.cls-18{fill-rule:evenodd;}.cls-13,.cls-14{fill:#34d661;}.cls-17{opacity:0.6;}.cls-18{fill:#bcbcbc;}.cls-19{fill:#efefef;}.cls-20{font-size:26px;}</style></defs><title>资源 19</title><g id="图层_2" data-name="图层 2"><g id="图层_1-2" data-name="图层 1"><rect class="cls-1" x="1" width="749" height="1225"/><rect class="cls-2" width="750" height="220"/><path class="cls-3" d="M218.26,168.89l-19.12-33.11a6.07,6.07,0,0,0-10.52,0L169.5,168.89a6.07,6.07,0,0,0,5.26,9.11H213A6.07,6.07,0,0,0,218.26,168.89Z"/><circle class="cls-1" cx="193.85" cy="169.68" r="3.91"/><path class="cls-1" d="M198.27,145.28l-1.38,15.85a3,3,0,0,1-6.07,0l-1.38-15.85a4.43,4.43,0,1,1,8.83,0Z"/><text class="cls-4" transform="translate(242.28 149.96)">请相关人员仔细阅读审核流程，及<tspan x="0" y="28.94">时把握对应流程节点处理时间。</tspan></text><text class="cls-5" transform="translate(105.14 538.76)">待审核</text><text class="cls-5" transform="translate(96.14 347.76)">拍照上传</text><text class="cls-6" transform="translate(223.19 655.06)">未通过</text><text class="cls-7" transform="translate(105.14 791.44)">待处理</text><text class="cls-8" transform="translate(105.14 988.47)">已处理</text><text class="cls-9" transform="translate(140.48 85.41)"><tspan xml:space="preserve">安全质量随手拍  处理流程</tspan></text><path class="cls-10" d="M223.45,554.11l-2.38,1.79a2.14,2.14,0,0,1-3-.42L199,529.87a2.14,2.14,0,0,0-3-.42L183.32,539a2.14,2.14,0,0,0-.42,3L202,567.59a2.14,2.14,0,0,1-.42,3l-2.43,1.84a1.4,1.4,0,0,0,.65,2.51l20.62,2.89a2.14,2.14,0,0,0,2.41-1.83l2.83-20.57A1.4,1.4,0,0,0,223.45,554.11Z"/><path class="cls-10" d="M148.34,641.34h-3a2.14,2.14,0,0,1-2.14-2.14v-81a2.14,2.14,0,0,0-2.14-2.14H125.25a2.14,2.14,0,0,0-2.14,2.14v81a2.14,2.14,0,0,1-2.14,2.14h-3a1.4,1.4,0,0,0-1,2.4l14.72,14.72a2.14,2.14,0,0,0,3,0l14.65-14.72A1.4,1.4,0,0,0,148.34,641.34Z"/><path class="cls-10" d="M148.48,390.27h-3a2.16,2.16,0,0,1-2.16-2.16v-17a2.16,2.16,0,0,0-2.16-2.16h-16a2.16,2.16,0,0,0-2.16,2.16v17a2.16,2.16,0,0,1-2.16,2.16h-3.08a1.42,1.42,0,0,0-1,2.42l14.85,14.85a2.16,2.16,0,0,0,3.05,0l14.78-14.85A1.42,1.42,0,0,0,148.48,390.27Z"/><path class="cls-10" d="M148.48,838.27h-3a2.16,2.16,0,0,1-2.16-2.16v-17a2.16,2.16,0,0,0-2.16-2.16h-16a2.16,2.16,0,0,0-2.16,2.16v17a2.16,2.16,0,0,1-2.16,2.16h-3.08a1.42,1.42,0,0,0-1,2.42l14.85,14.85a2.16,2.16,0,0,0,3.05,0l14.78-14.85A1.42,1.42,0,0,0,148.48,838.27Z"/><path class="cls-10" d="M148.48,1030.27h-3a2.16,2.16,0,0,1-2.16-2.16v-17a2.16,2.16,0,0,0-2.16-2.16h-16a2.16,2.16,0,0,0-2.16,2.16v17a2.16,2.16,0,0,1-2.16,2.16h-3.08a1.42,1.42,0,0,0-1,2.42l14.85,14.85a2.16,2.16,0,0,0,3.05,0l14.78-14.85A1.42,1.42,0,0,0,148.48,1030.27Z"/><path class="cls-10" d="M182.56,503.85l-42.21-71a8.42,8.42,0,0,0-14.71,0L83.43,504.49c-3.2,5.76.64,14.07,7.67,14.07h84.42C181.92,518.56,186.4,509.61,182.56,503.85Z"/><path class="cls-11" d="M142.2,496.29a18.25,18.25,0,0,0-.71-4.56c-.52-1.92-2.43-3.37-3.78-4.33s-2.39-1.71-2.39-3.25,1-2.38,2.39-3.61a24.22,24.22,0,0,0,3.2-3.74,5.07,5.07,0,0,0,1-2.79H124a7.28,7.28,0,0,0,.87,2.72,16.68,16.68,0,0,0,3.46,3.67c1.39,1.18,2.49,2.1,2.49,3.64s-1.2,2.3-2.49,3.25c-1.62,1-3.52,2.53-3.94,4.43-.45,1.08-.39,1.57-.65,4.56H142.2Zm-26.26,2.85c0-1.67.39-2.85,2-2.85h1.42a29.17,29.17,0,0,1,.9-5.54c.61-3.41,3.55-5.48,5.36-6.79,0-.1,0-.13-.1-.13a16.5,16.5,0,0,1-4.17-4.17,16,16,0,0,1-2.39-8.73h-1c-1.68,0-2-2-2-3.77v-.33c0-1.71,1.13-2.3,2.84-2.3h28.56c1.65,0,3,.59,3,2.3v.33c0,1.74-.68,3.77-2.26,3.77h-1.13c-.26,3.28-.74,6.33-2.42,8.73a28,28,0,0,1-4,4.23c-.26.1-.13,0-.23.07,1.94,1.77,4.13,3.05,5.36,6.79a33.3,33.3,0,0,1,.81,5.54h1.61c1.58,0,2.26,1.18,2.26,2.85v.49c0,1.61-.68,3.12-2.26,3.12H118c-1.68,0-2-1.51-2-3.12v-.49Z"/><path class="cls-12" d="M288,620.42l-29.45-49.53a5.88,5.88,0,0,0-10.26,0l-29.45,50c-2.23,4,.45,9.82,5.36,9.82H283.1C287.56,630.68,290.69,624.43,288,620.42Z"/><path class="cls-11" d="M266.32,601a.84.84,0,0,0,0-1.19l-3.58-3.56a.85.85,0,0,0-1.19,0l-5.42,5.43a3.5,3.5,0,0,1-4.95,0l-5.34-5.31a.85.85,0,0,0-1.19,0l-3.58,3.57a.84.84,0,0,0,0,1.19l5.34,5.32a3.5,3.5,0,0,1,0,5l-5.35,5.36a.84.84,0,0,0,0,1.19l3.58,3.56a.85.85,0,0,0,1.19,0l5.36-5.36a3.5,3.5,0,0,1,4.95,0l5.4,5.37a.84.84,0,0,0,1.19,0l3.58-3.56a.84.84,0,0,0,0-1.19l-5.4-5.38a3.5,3.5,0,0,1,0-5Z"/><text class="cls-13" transform="translate(105.14 1182.7)">已确认</text><path class="cls-14" d="M182.56,1144.39l-42.21-71a8.42,8.42,0,0,0-14.71,0L83.43,1145c-3.2,5.76.64,14.07,7.67,14.07h84.42C181.92,1159.1,186.4,1150.14,182.56,1144.39Z"/><path class="cls-1" d="M115.72,1149.31l-9.24-11.15a6.4,6.4,0,0,1,.84-9h0a6.4,6.4,0,0,1,9,.84l.69.83a6.4,6.4,0,0,0,9.25.63l21.62-19.84a6.4,6.4,0,0,1,9,.39h0a6.4,6.4,0,0,1-.39,9l-27.05,24.82-4.55,4.11A6.4,6.4,0,0,1,115.72,1149.31Z"/><path class="cls-15" d="M182.56,753.72l-42.21-71a8.42,8.42,0,0,0-14.71,0L83.43,754.36c-3.2,5.76.64,14.07,7.67,14.07h84.42c6.4,0,10.87-9,7-14.71Z"/><rect class="cls-1" x="126.92" y="747.33" width="12.79" height="12.79" rx="6.4" ry="6.4"/><rect class="cls-1" x="126.92" y="698.08" width="12.79" height="44.77" rx="6.4" ry="6.4"/><path class="cls-16" d="M182.56,950.16l-42.21-71a8.42,8.42,0,0,0-14.71,0L83.43,950.79c-3.2,5.76.64,14.07,7.67,14.07h84.42C181.92,964.87,186.4,955.91,182.56,950.16Z"/><path class="cls-11" d="M160.57,946.45,144,929.89a16.46,16.46,0,0,0-21.58-21.58l7.88,7.88a4.11,4.11,0,0,1,0,5.82l-2.91,2.91a4.11,4.11,0,0,1-5.82,0L113.7,917a16.46,16.46,0,0,0,21.58,21.58l16.56,16.56a4.11,4.11,0,0,0,5.82,0l2.91-2.91a4.11,4.11,0,0,0,0-5.82h0m0,0"/><g class="cls-17"><path class="cls-18" d="M168.23,322.88h-70a4.77,4.77,0,0,1-4.77-4.77V276.76A4.77,4.77,0,0,1,98.25,272h14.31c4.77,0,6.36-9.54,9.54-9.54h20.68c4.73,0,6.54,9.54,11.13,9.54h14.31a4.77,4.77,0,0,1,4.77,4.77v41.35a4.77,4.77,0,0,1-4.77,4.77Zm-35-46.12a19.09,19.09,0,1,0,19.09,19.08,19.08,19.08,0,0,0-19.09-19.08Zm23.06,0a2.39,2.39,0,1,0,2.39,2.39,2.38,2.38,0,0,0-2.39-2.39Zm-23.06,33.4a14.32,14.32,0,1,1,14.31-14.32,14.32,14.32,0,0,1-14.31,14.32Zm-31.81-42.94a1.59,1.59,0,0,1,1.59-1.59h4.77a1.59,1.59,0,0,1,1.59,1.59v1.59h-8v-1.59Z"/></g><rect class="cls-19" x="229" y="408" width="461" height="99" rx="12.82" ry="12.82"/><text class="cls-20" transform="translate(250 452.66)">用户上传违章事项，等待安全部门负<tspan x="0" y="31.2">责人审核。</tspan></text><rect class="cls-19" x="212" y="448.25" width="33" height="33" transform="translate(395.55 -25.45) rotate(45)"/><rect class="cls-19" x="229" y="261.5" width="461" height="98.5" rx="12.82" ry="12.82"/><text class="cls-20" transform="translate(250 298.66)">工地工人或管理人员发现安全质量违<tspan x="0" y="31.2">章问题，随时随地拍照上传。</tspan></text><rect class="cls-19" x="212" y="288.25" width="33" height="33" transform="translate(282.42 -72.31) rotate(45)"/><rect class="cls-19" x="243" y="706.89" width="447" height="152.5" rx="12.82" ry="12.82"/><text class="cls-20" transform="translate(268.12 763.87)">违章事项由安全部门负责人审核通<tspan x="0" y="31.2">过，已分配至对应部门负责人，等</tspan><tspan x="0" y="62.4">待处理。</tspan></text><rect class="cls-19" x="226" y="732.64" width="33" height="33" transform="translate(600.75 47.95) rotate(45)"/><rect class="cls-19" x="342" y="546.39" width="348" height="125.5" rx="12.82" ry="12.82"/><rect class="cls-19" x="325" y="590.64" width="33" height="33" transform="translate(529.34 -63.65) rotate(45)"/><rect class="cls-19" x="243" y="903.35" width="447" height="132.5" rx="12.82" ry="12.82"/><text class="cls-20" transform="translate(278.12 949.45)">对应部门负责人分配执行人，处理<tspan x="0" y="31.2">违章事项完毕，等待安全部门负责</tspan><tspan x="0" y="62.4">人确认。</tspan></text><rect class="cls-19" x="226" y="929.1" width="33" height="33" transform="translate(739.67 105.49) rotate(45)"/><rect class="cls-19" x="246" y="1080" width="444" height="97.21" rx="12.82" ry="12.82"/><text class="cls-20" transform="translate(281.57 1124.45)">安全部门负责人确认违章事项已经<tspan x="0" y="31.2">处理完毕。</tspan></text><rect class="cls-19" x="229" y="1108.1" width="33" height="33" transform="translate(867.12 155.79) rotate(45)"/><text class="cls-20" transform="translate(357.51 587.37)">用户上传的违章事项有问题<tspan x="0" y="31.2">，审核未通过，请修改后重</tspan><tspan x="0" y="62.4">新提交。</tspan></text></g></g></svg>