<svg xmlns="http://www.w3.org/2000/svg" viewBox="0 0 77.18 68.32"><defs><style>.cls-1{fill:#34d661;}.cls-2{fill:#fff;}</style></defs><title>资源 7</title><g id="图层_2" data-name="图层 2"><g id="图层_1-2" data-name="图层 1"><path class="cls-1" d="M76.1,57.16l-32-53.88a6.39,6.39,0,0,0-11.16,0L.87,57.64C-1.56,62,1.35,68.32,6.69,68.32H70.76C75.62,68.32,79,61.52,76.1,57.16Z"/><path class="cls-2" d="M25.37,60.89l-7-8.46A4.85,4.85,0,0,1,19,45.59h0a4.85,4.85,0,0,1,6.83.64l.52.63a4.85,4.85,0,0,0,7,.48L49.79,32.28a4.85,4.85,0,0,1,6.86.3h0a4.85,4.85,0,0,1-.3,6.86L35.82,58.27l-3.45,3.12A4.85,4.85,0,0,1,25.37,60.89Z"/></g></g></svg>