<svg xmlns="http://www.w3.org/2000/svg" viewBox="0 0 77.18 68.32"><defs><style>.cls-1{fill:#34d661;}.cls-2{fill:#fff;fill-rule:evenodd;}</style></defs><title>资源 2</title><g id="图层_2" data-name="图层 2"><g id="图层_1-2" data-name="图层 1"><path class="cls-1" d="M76.1,57.16l-32-53.88a6.39,6.39,0,0,0-11.16,0L.87,57.64C-1.56,62,1.35,68.32,6.69,68.32H70.76C75.62,68.32,79,61.52,76.1,57.16Z"/><path class="cls-2" d="M51.78,32.24V53.82a6,6,0,0,1-6,6H35A5.94,5.94,0,0,1,30.71,58L20.29,47.41a1.79,1.79,0,0,1,0-2.54l.64-.6a1.76,1.76,0,0,1,1.18-.43,1.82,1.82,0,0,1,.89.24c.06,0,6.2,3.54,6.41,3.66h0V30.05a2.26,2.26,0,0,1,2.28-2.27A2.23,2.23,0,0,1,33.91,30v9.68a.74.74,0,0,0,.74.74h0a.74.74,0,0,0,.74-.74V26.33a2.26,2.26,0,0,1,2.28-2.27,2.23,2.23,0,0,1,2.18,2.23v13.4a.74.74,0,0,0,.74.74h0a.74.74,0,0,0,.74-.74V27.82a2.26,2.26,0,0,1,2.28-2.27,2.23,2.23,0,0,1,2.18,2.23V39.69a.74.74,0,0,0,.74.74h0a.74.74,0,0,0,.74-.74v-7.4A2.26,2.26,0,0,1,49.6,30a2.23,2.23,0,0,1,2.18,2.23Z"/></g></g></svg>